<?xml version="1.0" encoding="utf-8"?>
<!-- Generator: Adobe Illustrator 18.0.0, SVG Export Plug-In . SVG Version: 6.00 Build 0)  -->
<!DOCTYPE svg PUBLIC "-//W3C//DTD SVG 1.1//EN" "http://www.w3.org/Graphics/SVG/1.1/DTD/svg11.dtd">
<svg version="1.1" id="Layer_1" xmlns="http://www.w3.org/2000/svg" xmlns:xlink="http://www.w3.org/1999/xlink" x="0px" y="0px"
	 viewBox="0 0 1024 1024" enable-background="new 0 0 1024 1024" xml:space="preserve">
<rect fill="#FFFFFF" width="1024" height="1024"/>
<g>
	<defs>
		<rect id="SVGID_1_" width="1024" height="1024"/>
	</defs>
	<clipPath id="SVGID_2_">
		<use xlink:href="#SVGID_1_"  overflow="visible"/>
	</clipPath>
	<path clip-path="url(#SVGID_2_)" fill="#4CB4FF" d="M285,726.8c4,11.2,16.3,20.3,27.5,20.3h158.9c11.2,0,17.1-9.1,13.1-20.3
		L386.3,473c-4-11.3-16.9-22-28.7-24l-164-26.7c-11.2,0-17.1,9.1-13.1,20.3L285,726.8z"/>
	<path clip-path="url(#SVGID_2_)" fill="#F1BC3E" d="M621.6,637.9c0,11.2-9.1,19.9-20.3,19.5l-162.4-10
		c-11.2-0.2-20.3-9.5-20.3-20.7V297.2c0-11.2,9.1-20.3,20.3-20.3l161.4,44.7c11.1,3.1,20.2,14.7,20.3,26.1L621.6,637.9z"/>
	<path clip-path="url(#SVGID_2_)" fill="#282F3C" d="M742.7,726.8c-4.4,11.2-17,20.3-28.2,20.3H568.7c-11.2,0-17.1-9.1-13.1-20.3
		l101-284.2c4-11.2,16.3-20.3,27.5-20.3L832.2,457c10.2,2.4,15.2,13.5,11.2,24.8L742.7,726.8z"/>
</g>
</svg>
